<svg version="1.1" xmlns="http://www.w3.org/2000/svg" width="500" height="500" viewBox="0 0 500 500" fill="currentColor" class="size-9 fill-white"><path d="m 223.99781,393.97653 c -4.92337,-5.50035 -13.93578,-12.48778 -20.02749,-15.52764 -6.09171,-3.03986 -11.66495,-7.062 -12.38483,-8.93808 -0.72013,-1.87615 -3.36868,-4.06481 -5.88607,-4.86382 -3.41439,-1.0837 -4.98451,-5.16898 -6.18122,-16.08232 -0.8823,-8.04635 -2.26547,-19.85181 -3.07376,-26.23437 -1.48052,-11.69133 6.0902,-41.07169 11.00549,-42.71015 3.77294,-1.25762 8.33408,20.27349 5.44025,25.68073 -2.57374,4.80899 -0.77527,26.43881 3.01868,36.3069 4.00847,10.42579 27.3657,31.24269 39.81472,35.48455 23.6938,8.0732 51.64719,4.47954 70.75666,-9.09649 6.68979,-4.75273 9.13565,-3.87308 5.07603,1.82557 -1.03351,1.45071 -10.61154,9.79486 -21.28447,18.54256 -19.85972,16.27725 -28.33375,19.26388 -32.67055,11.51445 -2.04113,-3.64729 -3.46946,-3.89098 -8.43927,-1.43953 -12.97347,6.39943 -15.90744,5.87919 -25.16417,-4.46236 z m 37.88565,-27.08837 c -2.27267,-2.27258 -11.31448,-6.01306 -20.09303,-8.31218 -10.26618,-2.68868 -16.9722,-5.99484 -18.79504,-9.26601 -1.5587,-2.7972 -4.84808,-7.84382 -7.30977,-11.21473 -7.02019,-9.61296 -5.4874,-14.16141 9.71583,-28.83081 18.24692,-17.60632 21.00329,-18.37816 10.64103,-2.98 -7.05824,10.48854 -8.19454,14.22086 -7.39393,24.28708 0.82179,10.33205 1.92611,12.29996 8.40985,14.98559 5.58779,2.31454 10.18786,2.39231 18.30175,0.30931 5.96088,-1.53032 14.39982,-3.45452 18.75325,-4.2759 5.52864,-1.04318 12.46915,-6.5898 23.01835,-18.3955 8.30667,-9.29614 15.48672,-17.87575 15.95556,-19.06591 0.46915,-1.19016 3.05848,-2.16397 5.75459,-2.16397 4.01398,0 4.90211,1.85338 4.90211,10.23038 0,7.0811 -1.10624,10.23038 -3.59342,10.23038 -1.97631,0 -6.58446,5.10393 -10.24021,11.34205 -3.65576,6.23814 -10.38296,13.96455 -14.94923,17.16986 -4.56626,3.20531 -9.45319,7.14033 -10.85987,8.74458 -3.04097,3.46794 -14.59499,11.33782 -16.64538,11.33782 -0.79206,0 -3.29986,-1.85937 -5.57244,-4.13196 z m 0.67936,-51.95674 c -2.77036,-1.75347 -1.33435,-3.26237 6.03521,-6.34156 8.69765,-3.6341 9.49483,-4.74082 7.92398,-10.99966 -0.96061,-3.82751 -5.74252,-12.40265 -10.62648,-19.05583 -7.62564,-10.38815 -10.48462,-12.33744 -20.24081,-13.80054 -15.85485,-2.37753 -21.95383,-0.23339 -34.21343,12.02573 -12.40625,12.40633 -17.30964,10.94658 -14.44913,-4.3014 3.57656,-19.06431 27.26204,-32.55474 47.14535,-26.85227 9.48788,2.72104 24.68215,15.20578 32.54579,26.7419 7.43741,10.91102 9.95208,31.80233 4.72612,39.26347 -4.11853,5.87999 -12.47595,7.35229 -18.8466,3.32016 z m 35.99759,-20.6716 c 0.1087,-14.06469 -7.74032,-29.12445 -26.4982,-50.84011 -5.33523,-6.17643 -9.70032,-13.3552 -9.70032,-15.95284 0,-2.70705 -4.24944,-7.4056 -9.95552,-11.00773 -17.6303,-11.12945 -26.76347,-30.16627 -16.25983,-33.89125 10.42308,-3.69644 13.65972,-9.01872 12.05683,-19.82623 -1.89223,-12.75881 3.02843,-62.949917 6.51323,-66.434727 2.37673,-2.37664 4.06106,11.484717 3.08006,25.347687 -1.86433,26.34666 -0.29332,39.56175 7.09749,59.71912 10.43306,28.453 13.24522,33.66785 32.25846,59.81966 8.93704,12.2926 16.97468,25.24043 17.86129,28.77294 0.8866,3.53252 3.21361,6.42276 5.17113,6.42276 2.09131,0 3.55913,2.63689 3.55913,6.39399 0,3.76766 -1.46701,6.39399 -3.57143,6.39399 -1.96432,0 -7.10828,4.02821 -11.43109,8.95158 -4.32274,4.92337 -8.40426,8.95158 -9.07004,8.95158 -0.66577,0 -1.16586,-5.76921 -1.11119,-12.82042 z m -102.69615,-49.6354 c 0,-1.85706 0.3229,-2.28354 15.17414,-20.05123 5.59633,-6.6953 11.2523,-14.09786 12.56865,-16.45013 2.11162,-3.77317 3.16966,-3.39377 8.98403,3.22169 8.29916,9.4424 8.28405,10.18299 -0.28133,13.82604 -11.0608,4.70446 -27.68644,13.79519 -32.26725,17.64341 -2.29817,1.93058 -4.17848,2.74518 -4.17848,1.81022 z"></path></svg>