<svg version="1.1" xmlns="http://www.w3.org/2000/svg" width="500" height="500" viewBox="0 0 500 500" fill="currentColor" class="size-9 fill-white"><path d="m 235.45115,364.75427 c -2.16212,-16.06363 -5.95606,-36.73427 -8.43108,-45.93476 -2.47509,-9.20042 -4.96634,-18.57558 -5.53613,-20.83369 -1.93862,-7.68173 -12.07319,-27.6294 -17.44252,-34.33155 -12.00429,-14.98416 -23.33735,-26.44319 -30.57866,-30.91857 -13.56104,-8.38118 -5.56789,-13.42216 21.36434,-13.4737 22.94612,-0.0425 27.26377,-2.48381 36.06822,-20.38206 7.50388,-15.25424 9.97727,-26.07698 4.76935,-20.86913 -4.45461,4.45461 -13.16932,3.11471 -20.643,-3.17403 -15.26537,-12.84494 -41.23156,5.19885 -50.28503,34.94288 -2.4395,8.01456 -6.7186,4.62758 -8.26819,-6.54428 -2.48884,-17.94398 -16.37163,-50.28581 -24.02501,-55.9696 -2.80904,-2.0862 -3.15759,-3.51585 -1.30815,-5.36529 2.32658,-2.32665 20.60309,9.18206 22.94321,14.44726 1.69292,3.80904 6.40499,1.11271 12.52956,-7.16965 44.76995,-60.543506 131.72644,-59.187368 168.82252,2.63288 4.04814,6.74625 5.99264,7.49538 10.23303,3.9426 16.99834,-14.24191 30.52528,-20.16962 21.42389,-9.38835 -7.42499,8.79545 -21.54256,41.70274 -23.39214,54.52556 -2.3633,16.38503 -5.27045,18.25467 -9.63148,6.19439 -8.76518,-24.23952 -40.59705,-49.00871 -46.15076,-35.91099 -2.95889,6.97818 -15.78901,12.15995 -21.24944,8.58214 -7.28427,-4.77289 -7.05878,-2.34125 1.5732,16.96383 8.82167,19.72912 13.46711,22.57523 36.84783,22.57523 30.06785,0 33.39351,3.89326 15.4143,18.04492 -25.91032,20.39447 -41.55657,50.23718 -51.78754,98.77683 -1.28901,6.11542 -7.44866,51.33018 -7.5557,55.46197 -0.1751,6.76552 -4.65232,-1.40002 -6.22083,-11.34567 -6.44802,-40.88776 -1.69725,-117.60774 7.81366,-126.18174 11.05992,-9.97039 10.43803,-16.49845 -4.18574,-43.93546 -8.70371,-16.32981 -8.83422,-16.34768 -16.50185,-2.2596 -15.12955,27.79784 -16.1146,36.23729 -5.39641,46.23058 9.66147,9.0081 9.66147,9.0081 9.62368,60.2635 -0.0638,87.40833 -3.62664,103.9761 -10.83713,50.40355 z m -27.37187,-15.02215 c -0.79748,-2.07806 -1.4714,-7.52267 -1.49777,-12.09921 -0.12831,-22.33315 -19.54531,-57.76197 -40.48901,-73.87777 -8.83855,-6.80111 -13.7469,-12.54367 -15.93065,-18.63824 -1.73595,-4.84478 -5.12577,-11.33611 -7.53287,-14.42529 -5.11216,-6.56059 -1.4987,-9.35843 4.76523,-3.6896 2.20934,1.99944 5.14845,3.6353 6.53139,3.6353 6.86221,0 41.59371,38.56259 48.37653,53.71284 3.81004,8.51012 7.87342,17.24538 9.02987,19.41176 2.62424,4.91629 2.71717,42.61803 0.11484,46.72281 -1.53003,2.41363 -2.21132,2.26137 -3.36784,-0.7526 z m 79.41249,-1.55605 c -5.57335,-20.81114 3.35905,-60.84123 17.48661,-78.36555 15.60662,-19.35895 53.83881,-51.03097 55.5184,-45.99219 0.46644,1.3996 -0.63018,4.27201 -2.43766,6.38316 -1.80726,2.11116 -5.53613,8.60512 -8.28633,14.43111 -2.75021,5.82598 -8.26649,13.0863 -12.25842,16.13409 -24.73707,18.8862 -43.92079,52.95505 -44.27509,78.62918 -0.15736,11.38537 -3.62934,16.6897 -5.74751,8.7802 z M 177.09614,321.20833 c -1.617,-6.00505 -6.0904,-12.69012 -12.78298,-19.1027 -10.21999,-9.79247 -11.79729,-16.9534 -5.92105,-26.88183 4.06573,-6.86951 22.71396,26.43723 24.88594,44.44756 1.63544,13.56124 -2.65677,14.62838 -6.18191,1.53697 z m 139.24585,-1.53697 c 3.56533,-26.55101 21.69014,-51.60927 27.41646,-37.90434 3.55179,8.5007 3.55179,8.5007 -7.47163,20.15629 -6.06289,6.4106 -12.27592,15.45081 -13.80673,20.0893 -4.0492,12.26905 -7.90262,10.79928 -6.1381,-2.34125 z m 46.80582,-96.97339 c 0,-0.62381 0.51039,-1.1342 1.13419,-1.1342 0.62381,0 1.1342,0.51039 1.1342,1.1342 0,0.6238 -0.51039,1.13419 -1.1342,1.13419 -0.6238,0 -1.13419,-0.51039 -1.13419,-1.13419 z"></path></svg>